<?xml version="1.0" standalone="no"?>
<svg xmlns="http://www.w3.org/2000/svg" xmlns:xlink="http://www.w3.org/1999/xlink" width="2751pt" height="426pt" viewBox="0.00 0.00 2751.35 426.00">
<g id="graph0" class="graph" transform="translate(4,422) scale(1)" data-name="pipeline">

<polygon fill="white" stroke="none" points="-4,4 -4,-422 2747.35,-422 2747.35,4 -4,4" style=""/>
<text text-anchor="middle" x="1371.68" y="-405" font-family="sans" font-size="10.00" style="">&lt;GstPipeline&gt;</text>
<text text-anchor="middle" x="1371.68" y="-393" font-family="sans" font-size="10.00" style="">pipeline0</text>
<text text-anchor="middle" x="1371.68" y="-381" font-family="sans" font-size="10.00" style="">[&gt;]</text>
<g id="clust1" class="cluster" data-name="cluster_whipsink0_0x131104140">

<path fill="#ffffff" stroke="black" d="M2302.63,-184C2302.63,-184 2723.35,-184 2723.35,-184 2729.35,-184 2735.35,-190 2735.35,-196 2735.35,-196 2735.35,-354 2735.35,-354 2735.35,-360 2729.35,-366 2723.35,-366 2723.35,-366 2302.63,-366 2302.63,-366 2296.63,-366 2290.63,-360 2290.63,-354 2290.63,-354 2290.63,-196 2290.63,-196 2290.63,-190 2296.63,-184 2302.63,-184" style=""/>
<text text-anchor="middle" x="2512.99" y="-354.8" font-family="Bitstream Vera Sans" font-size="8.00" style="">GstWhipSink</text>
<text text-anchor="middle" x="2512.99" y="-345.2" font-family="Bitstream Vera Sans" font-size="8.00" style="">whipsink0</text>
<text text-anchor="middle" x="2512.99" y="-335.6" font-family="Bitstream Vera Sans" font-size="8.00" style="">[&gt;]</text>
<text text-anchor="middle" x="2512.99" y="-326" font-family="Bitstream Vera Sans" font-size="8.00" style="">whip-endpoint="http://localhost:8000"</text>
</g>
<g id="clust2" class="cluster" data-name="cluster_whipsink0_0x131104140_sink">

</g>
<g id="clust3" class="cluster" data-name="cluster_whip_webrtcbin_0x121822130">

<path fill="#ffffff" stroke="black" d="M2509.13,-192C2509.13,-192 2715.35,-192 2715.35,-192 2721.35,-192 2727.35,-198 2727.35,-204 2727.35,-204 2727.35,-300 2727.35,-300 2727.35,-306 2721.35,-312 2715.35,-312 2715.35,-312 2509.13,-312 2509.13,-312 2503.13,-312 2497.13,-306 2497.13,-300 2497.13,-300 2497.13,-204 2497.13,-204 2497.13,-198 2503.13,-192 2509.13,-192" style=""/>
<text text-anchor="middle" x="2612.24" y="-300.8" font-family="Bitstream Vera Sans" font-size="8.00" style="">GstWebRTCBin</text>
<text text-anchor="middle" x="2612.24" y="-291.2" font-family="Bitstream Vera Sans" font-size="8.00" style="">whip-webrtcbin</text>
<text text-anchor="middle" x="2612.24" y="-281.6" font-family="Bitstream Vera Sans" font-size="8.00" style="">[&gt;]</text>
<text text-anchor="middle" x="2612.24" y="-272" font-family="Bitstream Vera Sans" font-size="8.00" style="">bundle-policy=max-bundle</text>
<text text-anchor="middle" x="2612.24" y="-262.4" font-family="Bitstream Vera Sans" font-size="8.00" style="">ice-agent=(GstWebRTCNice) whip-webrtcbin:ice</text>
</g>
<g id="clust4" class="cluster" data-name="cluster_whip_webrtcbin_0x121822130_sink">

</g>
<g id="clust6" class="cluster" data-name="cluster_srtserversink0_0x131108320">

<path fill="#aaaaff" stroke="black" d="M734.44,-8C734.44,-8 861.44,-8 861.44,-8 867.44,-8 873.44,-14 873.44,-20 873.44,-20 873.44,-164 873.44,-164 873.44,-170 867.44,-176 861.44,-176 861.44,-176 734.44,-176 734.44,-176 728.44,-176 722.44,-170 722.44,-164 722.44,-164 722.44,-20 722.44,-20 722.44,-14 728.44,-8 734.44,-8" style=""/>
<text text-anchor="middle" x="797.94" y="-164.8" font-family="Bitstream Vera Sans" font-size="8.00" style="">GstSRTServerSink</text>
<text text-anchor="middle" x="797.94" y="-155.2" font-family="Bitstream Vera Sans" font-size="8.00" style="">srtserversink0</text>
<text text-anchor="middle" x="797.94" y="-145.6" font-family="Bitstream Vera Sans" font-size="8.00" style="">[&gt;]</text>
<text text-anchor="middle" x="797.94" y="-136" font-family="Bitstream Vera Sans" font-size="8.00" style="">async=FALSE</text>
<text text-anchor="middle" x="797.94" y="-126.4" font-family="Bitstream Vera Sans" font-size="8.00" style="">last-sample=((GstSample*) 0x13113ae50)</text>
<text text-anchor="middle" x="797.94" y="-116.8" font-family="Bitstream Vera Sans" font-size="8.00" style="">uri="srt://:8888"</text>
<text text-anchor="middle" x="797.94" y="-107.2" font-family="Bitstream Vera Sans" font-size="8.00" style="">mode=listener</text>
<text text-anchor="middle" x="797.94" y="-97.6" font-family="Bitstream Vera Sans" font-size="8.00" style="">localport=8888</text>
<text text-anchor="middle" x="797.94" y="-88" font-family="Bitstream Vera Sans" font-size="8.00" style="">wait-for-connection=FALSE</text>
<text text-anchor="middle" x="797.94" y="-78.4" font-family="Bitstream Vera Sans" font-size="8.00" style="">streamid=NULL</text>
<text text-anchor="middle" x="797.94" y="-68.8" font-family="Bitstream Vera Sans" font-size="8.00" style="">authentication=TRUE</text>
</g>
<g id="clust7" class="cluster" data-name="cluster_srtserversink0_0x131108320_sink">

</g>
<g id="clust8" class="cluster" data-name="cluster_rtph264pay0_0x1310fe0c0">

<path fill="#aaffaa" stroke="black" d="M2001.13,-184C2001.13,-184 2150.13,-184 2150.13,-184 2156.13,-184 2162.13,-190 2162.13,-196 2162.13,-196 2162.13,-282 2162.13,-282 2162.13,-288 2156.13,-294 2150.13,-294 2150.13,-294 2001.13,-294 2001.13,-294 1995.13,-294 1989.13,-288 1989.13,-282 1989.13,-282 1989.13,-196 1989.13,-196 1989.13,-190 1995.13,-184 2001.13,-184" style=""/>
<text text-anchor="middle" x="2075.63" y="-282.8" font-family="Bitstream Vera Sans" font-size="8.00" style="">GstRtpH264Pay</text>
<text text-anchor="middle" x="2075.63" y="-273.2" font-family="Bitstream Vera Sans" font-size="8.00" style="">rtph264pay0</text>
<text text-anchor="middle" x="2075.63" y="-263.6" font-family="Bitstream Vera Sans" font-size="8.00" style="">[&gt;]</text>
<text text-anchor="middle" x="2075.63" y="-254" font-family="Bitstream Vera Sans" font-size="8.00" style="">timestamp=2198868812</text>
<text text-anchor="middle" x="2075.63" y="-244.4" font-family="Bitstream Vera Sans" font-size="8.00" style="">seqnum=21</text>
</g>
<g id="clust9" class="cluster" data-name="cluster_rtph264pay0_0x1310fe0c0_sink">

</g>
<g id="clust10" class="cluster" data-name="cluster_rtph264pay0_0x1310fe0c0_src">

</g>
<g id="clust11" class="cluster" data-name="cluster_h264parse0_0x1310fb070">

<path fill="#aaffaa" stroke="black" d="M1699.63,-184C1699.63,-184 1848.63,-184 1848.63,-184 1854.63,-184 1860.63,-190 1860.63,-196 1860.63,-196 1860.63,-263 1860.63,-263 1860.63,-269 1854.63,-275 1848.63,-275 1848.63,-275 1699.63,-275 1699.63,-275 1693.63,-275 1687.63,-269 1687.63,-263 1687.63,-263 1687.63,-196 1687.63,-196 1687.63,-190 1693.63,-184 1699.63,-184" style=""/>
<text text-anchor="middle" x="1774.13" y="-263.8" font-family="Bitstream Vera Sans" font-size="8.00" style="">GstH264Parse</text>
<text text-anchor="middle" x="1774.13" y="-254.2" font-family="Bitstream Vera Sans" font-size="8.00" style="">h264parse0</text>
<text text-anchor="middle" x="1774.13" y="-244.6" font-family="Bitstream Vera Sans" font-size="8.00" style="">[&gt;]</text>
</g>
<g id="clust12" class="cluster" data-name="cluster_h264parse0_0x1310fb070_sink">

</g>
<g id="clust13" class="cluster" data-name="cluster_h264parse0_0x1310fb070_src">

</g>
<g id="clust14" class="cluster" data-name="cluster_video_queue_0x133040960">

<path fill="#aaffaa" stroke="black" d="M1398.13,-184C1398.13,-184 1547.13,-184 1547.13,-184 1553.13,-184 1559.13,-190 1559.13,-196 1559.13,-196 1559.13,-263 1559.13,-263 1559.13,-269 1553.13,-275 1547.13,-275 1547.13,-275 1398.13,-275 1398.13,-275 1392.13,-275 1386.13,-269 1386.13,-263 1386.13,-263 1386.13,-196 1386.13,-196 1386.13,-190 1392.13,-184 1398.13,-184" style=""/>
<text text-anchor="middle" x="1472.63" y="-263.8" font-family="Bitstream Vera Sans" font-size="8.00" style="">GstQueue</text>
<text text-anchor="middle" x="1472.63" y="-254.2" font-family="Bitstream Vera Sans" font-size="8.00" style="">video-queue</text>
<text text-anchor="middle" x="1472.63" y="-244.6" font-family="Bitstream Vera Sans" font-size="8.00" style="">[&gt;]</text>
</g>
<g id="clust15" class="cluster" data-name="cluster_video_queue_0x133040960_sink">

</g>
<g id="clust16" class="cluster" data-name="cluster_video_queue_0x133040960_src">

</g>
<g id="clust17" class="cluster" data-name="cluster_demux_0x133040660">

<path fill="#aaffaa" stroke="black" d="M1095.17,-155C1095.17,-155 1244.17,-155 1244.17,-155 1250.17,-155 1256.17,-161 1256.17,-167 1256.17,-167 1256.17,-272 1256.17,-272 1256.17,-278 1250.17,-284 1244.17,-284 1244.17,-284 1095.17,-284 1095.17,-284 1089.17,-284 1083.17,-278 1083.17,-272 1083.17,-272 1083.17,-167 1083.17,-167 1083.17,-161 1089.17,-155 1095.17,-155" style=""/>
<text text-anchor="middle" x="1169.67" y="-272.8" font-family="Bitstream Vera Sans" font-size="8.00" style="">GstTSDemux</text>
<text text-anchor="middle" x="1169.67" y="-263.2" font-family="Bitstream Vera Sans" font-size="8.00" style="">demux</text>
<text text-anchor="middle" x="1169.67" y="-253.6" font-family="Bitstream Vera Sans" font-size="8.00" style="">[&gt;]</text>
<text text-anchor="middle" x="1169.67" y="-244" font-family="Bitstream Vera Sans" font-size="8.00" style="">parse-private-sections=TRUE</text>
</g>
<g id="clust18" class="cluster" data-name="cluster_demux_0x133040660_sink">

</g>
<g id="clust19" class="cluster" data-name="cluster_demux_0x133040660_src">

</g>
<g id="clust20" class="cluster" data-name="cluster_typefind_0x133045060">

<path fill="#aaffaa" stroke="black" d="M753.44,-184C753.44,-184 969.44,-184 969.44,-184 975.44,-184 981.44,-190 981.44,-196 981.44,-196 981.44,-272 981.44,-272 981.44,-278 975.44,-284 969.44,-284 969.44,-284 753.44,-284 753.44,-284 747.44,-284 741.44,-278 741.44,-272 741.44,-272 741.44,-196 741.44,-196 741.44,-190 747.44,-184 753.44,-184" style=""/>
<text text-anchor="middle" x="861.44" y="-272.8" font-family="Bitstream Vera Sans" font-size="8.00" style="">GstTypeFindElement</text>
<text text-anchor="middle" x="861.44" y="-263.2" font-family="Bitstream Vera Sans" font-size="8.00" style="">typefind</text>
<text text-anchor="middle" x="861.44" y="-253.6" font-family="Bitstream Vera Sans" font-size="8.00" style="">[&gt;]</text>
<text text-anchor="middle" x="861.44" y="-244" font-family="Bitstream Vera Sans" font-size="8.00" style="">caps=video/mpegts, systemstream=(boolean)true, packetsize=(int)188</text>
</g>
<g id="clust21" class="cluster" data-name="cluster_typefind_0x133045060_sink">

</g>
<g id="clust22" class="cluster" data-name="cluster_typefind_0x133045060_src">

</g>
<g id="clust23" class="cluster" data-name="cluster_srt_queue_0x133040360">

<path fill="#aaffaa" stroke="black" d="M538.94,-23C538.94,-23 687.94,-23 687.94,-23 693.94,-23 699.94,-29 699.94,-35 699.94,-35 699.94,-131 699.94,-131 699.94,-137 693.94,-143 687.94,-143 687.94,-143 538.94,-143 538.94,-143 532.94,-143 526.94,-137 526.94,-131 526.94,-131 526.94,-35 526.94,-35 526.94,-29 532.94,-23 538.94,-23" style=""/>
<text text-anchor="middle" x="613.44" y="-131.8" font-family="Bitstream Vera Sans" font-size="8.00" style="">GstQueue</text>
<text text-anchor="middle" x="613.44" y="-122.2" font-family="Bitstream Vera Sans" font-size="8.00" style="">srt_queue</text>
<text text-anchor="middle" x="613.44" y="-112.6" font-family="Bitstream Vera Sans" font-size="8.00" style="">[&gt;]</text>
<text text-anchor="middle" x="613.44" y="-103" font-family="Bitstream Vera Sans" font-size="8.00" style="">current-level-buffers=12</text>
<text text-anchor="middle" x="613.44" y="-93.4" font-family="Bitstream Vera Sans" font-size="8.00" style="">current-level-bytes=2256</text>
<text text-anchor="middle" x="613.44" y="-83.8" font-family="Bitstream Vera Sans" font-size="8.00" style="">current-level-time=12500</text>
</g>
<g id="clust24" class="cluster" data-name="cluster_srt_queue_0x133040360_sink">

</g>
<g id="clust25" class="cluster" data-name="cluster_srt_queue_0x133040360_src">

</g>
<g id="clust26" class="cluster" data-name="cluster_whep_queue_0x133040060">

<path fill="#aaffaa" stroke="black" d="M538.94,-175C538.94,-175 687.94,-175 687.94,-175 693.94,-175 699.94,-181 699.94,-187 699.94,-187 699.94,-283 699.94,-283 699.94,-289 693.94,-295 687.94,-295 687.94,-295 538.94,-295 538.94,-295 532.94,-295 526.94,-289 526.94,-283 526.94,-283 526.94,-187 526.94,-187 526.94,-181 532.94,-175 538.94,-175" style=""/>
<text text-anchor="middle" x="613.44" y="-283.8" font-family="Bitstream Vera Sans" font-size="8.00" style="">GstQueue</text>
<text text-anchor="middle" x="613.44" y="-274.2" font-family="Bitstream Vera Sans" font-size="8.00" style="">whep_queue</text>
<text text-anchor="middle" x="613.44" y="-264.6" font-family="Bitstream Vera Sans" font-size="8.00" style="">[&gt;]</text>
<text text-anchor="middle" x="613.44" y="-255" font-family="Bitstream Vera Sans" font-size="8.00" style="">current-level-buffers=2</text>
<text text-anchor="middle" x="613.44" y="-245.4" font-family="Bitstream Vera Sans" font-size="8.00" style="">current-level-bytes=376</text>
<text text-anchor="middle" x="613.44" y="-235.8" font-family="Bitstream Vera Sans" font-size="8.00" style="">current-level-time=1292</text>
</g>
<g id="clust27" class="cluster" data-name="cluster_whep_queue_0x133040060_sink">

</g>
<g id="clust28" class="cluster" data-name="cluster_whep_queue_0x133040060_src">

</g>
<g id="clust29" class="cluster" data-name="cluster_tee_0x133022000">

<path fill="#aaffaa" stroke="black" d="M330.44,-99C330.44,-99 479.44,-99 479.44,-99 485.44,-99 491.44,-105 491.44,-111 491.44,-111 491.44,-216 491.44,-216 491.44,-222 485.44,-228 479.44,-228 479.44,-228 330.44,-228 330.44,-228 324.44,-228 318.44,-222 318.44,-216 318.44,-216 318.44,-111 318.44,-111 318.44,-105 324.44,-99 330.44,-99" style=""/>
<text text-anchor="middle" x="404.94" y="-216.8" font-family="Bitstream Vera Sans" font-size="8.00" style="">GstTee</text>
<text text-anchor="middle" x="404.94" y="-207.2" font-family="Bitstream Vera Sans" font-size="8.00" style="">tee</text>
<text text-anchor="middle" x="404.94" y="-197.6" font-family="Bitstream Vera Sans" font-size="8.00" style="">[&gt;]</text>
<text text-anchor="middle" x="404.94" y="-188" font-family="Bitstream Vera Sans" font-size="8.00" style="">num-src-pads=2</text>
</g>
<g id="clust30" class="cluster" data-name="cluster_tee_0x133022000_sink">

</g>
<g id="clust31" class="cluster" data-name="cluster_tee_0x133022000_src">

</g>
<g id="clust32" class="cluster" data-name="cluster_srtsrc0_0x133030220">

<path fill="#ffaaaa" stroke="black" d="M104.47,-128C104.47,-128 178.47,-128 178.47,-128 184.47,-128 190.47,-134 190.47,-140 190.47,-140 190.47,-245 190.47,-245 190.47,-251 184.47,-257 178.47,-257 178.47,-257 104.47,-257 104.47,-257 98.47,-257 92.47,-251 92.47,-245 92.47,-245 92.47,-140 92.47,-140 92.47,-134 98.47,-128 104.47,-128" style=""/>
<text text-anchor="middle" x="141.47" y="-245.8" font-family="Bitstream Vera Sans" font-size="8.00" style="">GstSRTSrc</text>
<text text-anchor="middle" x="141.47" y="-236.2" font-family="Bitstream Vera Sans" font-size="8.00" style="">srtsrc0</text>
<text text-anchor="middle" x="141.47" y="-226.6" font-family="Bitstream Vera Sans" font-size="8.00" style="">[&gt;]</text>
<text text-anchor="middle" x="141.47" y="-217" font-family="Bitstream Vera Sans" font-size="8.00" style="">uri="srt://127.0.0.1:1234"</text>
<text text-anchor="middle" x="141.47" y="-207.4" font-family="Bitstream Vera Sans" font-size="8.00" style="">localaddress=NULL</text>
<text text-anchor="middle" x="141.47" y="-197.8" font-family="Bitstream Vera Sans" font-size="8.00" style="">streamid=NULL</text>
<text text-anchor="middle" x="141.47" y="-188.2" font-family="Bitstream Vera Sans" font-size="8.00" style="">authentication=TRUE</text>
</g>
<g id="clust33" class="cluster" data-name="cluster_srtsrc0_0x133030220_src">

</g>
<!-- legend -->
<g id="node1" class="node" pointer-events="visible" data-name="legend">

<polygon fill="lightgrey" stroke="black" points="282.91,-120 0.03,-120 0.03,-58 282.91,-58 282.91,-120" style=""/>
<text text-anchor="start" x="4" y="-107.9" font-family="sans" font-size="9.00" style="">Legend</text>
<text text-anchor="start" x="4" y="-97.1" font-family="sans" font-size="9.00" style="">Element-States: [~] void-pending, [0] null, [-] ready, [=] paused, [&gt;] playing</text>
<text text-anchor="start" x="4" y="-86.3" font-family="sans" font-size="9.00" style="">Pad-Activation: [-] none, [&gt;] push, [&lt;] pull</text>
<text text-anchor="start" x="4" y="-75.5" font-family="sans" font-size="9.00" style="">Pad-Flags: [b]locked, [f]lushing, [b]locking, [E]OS; upper-case is set</text>
<text text-anchor="start" x="4" y="-64.7" font-family="sans" font-size="9.00" style="">Pad-Task: [T] has started task, [t] has paused task</text>
</g>
<!-- _proxypad1_0x131110f10 -->
<g id="node2" class="node" pointer-events="visible" data-name="_proxypad1_0x131110f10">

<polygon fill="#ddddff" stroke="black" points="2360.63,-250.6 2306.63,-250.6 2306.63,-229.4 2360.63,-229.4 2360.63,-250.6" style=""/>
<text text-anchor="middle" x="2333.63" y="-242.7" font-family="sans" font-size="9.00" style="">proxypad1</text>
<text text-anchor="middle" x="2333.63" y="-231.9" font-family="sans" font-size="9.00" style="">[&gt;][bfb]</text>
</g>
<!-- whip_webrtcbin_0x121822130_sink_0_0x131104ac0 -->
<g id="node4" class="node" pointer-events="visible" data-name="whip_webrtcbin_0x121822130_sink_0_0x131104ac0">

<polygon fill="#ddddff" stroke="black" stroke-dasharray="5,2" points="2711.46,-240.4 2513.01,-240.4 2513.01,-207.6 2711.46,-207.6 2711.46,-240.4" style=""/>
<text text-anchor="middle" x="2612.24" y="-232.1" font-family="sans" font-size="9.00" style="">sink_0</text>
<text text-anchor="middle" x="2612.24" y="-221.3" font-family="sans" font-size="9.00" style="">transceiver=(WebRTCTransceiver) webrtctransceiver0</text>
<text text-anchor="middle" x="2612.24" y="-210.5" font-family="sans" font-size="9.00" style="">[&gt;][Bfb]</text>
</g>
<!-- _proxypad1_0x131110f10&#45;&gt;whip_webrtcbin_0x121822130_sink_0_0x131104ac0 -->
<g id="edge2" class="edge" data-name="_proxypad1_0x131110f10-&gt;whip_webrtcbin_0x121822130_sink_0_0x131104ac0">

<path fill="none" stroke="black" d="M2360.65,-238.49C2392.91,-236.63 2449.96,-233.33 2501.48,-230.35" style=""/>
<polygon fill="black" stroke="black" points="2501.42,-233.86 2511.2,-229.79 2501.02,-226.87 2501.42,-233.86" style=""/>
<text text-anchor="middle" x="2432.88" y="-239.7" font-family="monospace" font-size="9.00" style="">                                                  </text>
<text text-anchor="start" x="2392.89" y="-233.67" font-family="monospace" font-size="6.00" style="">application/x-rtp</text>
<text text-anchor="middle" x="2460.48" y="-230.92" font-family="monospace" font-size="6.00" style="">ANY</text>
</g>
<!-- whipsink0_0x131104140_sink_0_0x131866050 -->
<g id="node3" class="node" pointer-events="visible" data-name="whipsink0_0x131104140_sink_0_0x131866050">

<polygon fill="#ddddff" stroke="black" points="2360.63,-221.6 2306.63,-221.6 2306.63,-200.4 2360.63,-200.4 2360.63,-221.6" style=""/>
<text text-anchor="middle" x="2333.63" y="-213.7" font-family="sans" font-size="9.00" style="">sink_0</text>
<text text-anchor="middle" x="2333.63" y="-202.9" font-family="sans" font-size="9.00" style="">[&gt;][bfb]</text>
</g>
<!-- whipsink0_0x131104140_sink_0_0x131866050&#45;&gt;_proxypad1_0x131110f10 -->
<g id="edge1" class="edge" data-name="whipsink0_0x131104140_sink_0_0x131866050-&gt;_proxypad1_0x131110f10">

<path fill="none" stroke="black" stroke-dasharray="5,2" d="M2333.63,-221.88C2333.63,-222.02 2333.63,-222.17 2333.63,-222.32" style=""/>
<polygon fill="black" stroke="black" points="2330.13,-217.44 2333.63,-227.44 2337.13,-217.44 2330.13,-217.44" style=""/>
</g>
<!-- srtserversink0_0x131108320_sink_0x1310f6690 -->
<g id="node5" class="node" pointer-events="visible" data-name="srtserversink0_0x131108320_sink_0x1310f6690">

<polygon fill="#aaaaff" stroke="black" points="824.44,-45.6 770.44,-45.6 770.44,-24.4 824.44,-24.4 824.44,-45.6" style=""/>
<text text-anchor="middle" x="797.44" y="-37.7" font-family="sans" font-size="9.00" style="">sink</text>
<text text-anchor="middle" x="797.44" y="-26.9" font-family="sans" font-size="9.00" style="">[&gt;][bfb]</text>
</g>
<!-- rtph264pay0_0x1310fe0c0_sink_0x1310f6440 -->
<g id="node6" class="node" pointer-events="visible" data-name="rtph264pay0_0x1310fe0c0_sink_0x1310f6440">

<polygon fill="#aaaaff" stroke="black" points="2059.13,-221.6 2005.13,-221.6 2005.13,-200.4 2059.13,-200.4 2059.13,-221.6" style=""/>
<text text-anchor="middle" x="2032.13" y="-213.7" font-family="sans" font-size="9.00" style="">sink</text>
<text text-anchor="middle" x="2032.13" y="-202.9" font-family="sans" font-size="9.00" style="">[&gt;][bfb]</text>
</g>
<!-- rtph264pay0_0x1310fe0c0_src_0x1310f61f0 -->
<g id="node7" class="node" pointer-events="visible" data-name="rtph264pay0_0x1310fe0c0_src_0x1310f61f0">

<polygon fill="#ffaaaa" stroke="black" points="2146.13,-221.6 2092.13,-221.6 2092.13,-200.4 2146.13,-200.4 2146.13,-221.6" style=""/>
<text text-anchor="middle" x="2119.13" y="-213.7" font-family="sans" font-size="9.00" style="">src</text>
<text text-anchor="middle" x="2119.13" y="-202.9" font-family="sans" font-size="9.00" style="">[&gt;][bfb]</text>
</g>
<!-- rtph264pay0_0x1310fe0c0_sink_0x1310f6440&#45;&gt;rtph264pay0_0x1310fe0c0_src_0x1310f61f0 -->
<!-- rtph264pay0_0x1310fe0c0_src_0x1310f61f0&#45;&gt;whipsink0_0x131104140_sink_0_0x131866050 -->
<g id="edge4" class="edge" data-name="rtph264pay0_0x1310fe0c0_src_0x1310f61f0-&gt;whipsink0_0x131104140_sink_0_0x131866050">

<path fill="none" stroke="black" d="M2146.61,-211C2183.93,-211 2252.2,-211 2294.84,-211" style=""/>
<polygon fill="black" stroke="black" points="2294.63,-214.5 2304.63,-211 2294.63,-207.5 2294.63,-214.5" style=""/>
<text text-anchor="middle" x="2226.38" y="-213.7" font-family="monospace" font-size="9.00" style="">                                                  </text>
<text text-anchor="middle" x="2206.14" y="-209.2" font-family="monospace" font-size="6.00" style="">ANY</text>
<text text-anchor="start" x="2213.28" y="-223.6" font-family="monospace" font-size="6.00" style="">application/x-rtp</text>
<text text-anchor="start" x="2213.28" y="-216.4" font-family="monospace" font-size="6.00" style="">               media: video</text>
<text text-anchor="start" x="2213.28" y="-209.2" font-family="monospace" font-size="6.00" style="">             payload: [ 96, 127 ]</text>
<text text-anchor="start" x="2213.28" y="-202" font-family="monospace" font-size="6.00" style="">          clock-rate: 90000</text>
<text text-anchor="start" x="2213.28" y="-194.8" font-family="monospace" font-size="6.00" style="">       encoding-name: H264</text>
</g>
<!-- h264parse0_0x1310fb070_sink_0x13303d9f0 -->
<g id="node8" class="node" pointer-events="visible" data-name="h264parse0_0x1310fb070_sink_0x13303d9f0">

<polygon fill="#aaaaff" stroke="black" points="1757.63,-221.6 1703.63,-221.6 1703.63,-200.4 1757.63,-200.4 1757.63,-221.6" style=""/>
<text text-anchor="middle" x="1730.63" y="-213.7" font-family="sans" font-size="9.00" style="">sink</text>
<text text-anchor="middle" x="1730.63" y="-202.9" font-family="sans" font-size="9.00" style="">[&gt;][bfb]</text>
</g>
<!-- h264parse0_0x1310fb070_src_0x13303dc40 -->
<g id="node9" class="node" pointer-events="visible" data-name="h264parse0_0x1310fb070_src_0x13303dc40">

<polygon fill="#ffaaaa" stroke="black" points="1844.63,-221.6 1790.63,-221.6 1790.63,-200.4 1844.63,-200.4 1844.63,-221.6" style=""/>
<text text-anchor="middle" x="1817.63" y="-213.7" font-family="sans" font-size="9.00" style="">src</text>
<text text-anchor="middle" x="1817.63" y="-202.9" font-family="sans" font-size="9.00" style="">[&gt;][bfb]</text>
</g>
<!-- h264parse0_0x1310fb070_sink_0x13303d9f0&#45;&gt;h264parse0_0x1310fb070_src_0x13303dc40 -->
<!-- h264parse0_0x1310fb070_src_0x13303dc40&#45;&gt;rtph264pay0_0x1310fe0c0_sink_0x1310f6440 -->
<g id="edge6" class="edge" data-name="h264parse0_0x1310fb070_src_0x13303dc40-&gt;rtph264pay0_0x1310fe0c0_sink_0x1310f6440">

<path fill="none" stroke="black" d="M1845.11,-211C1882.43,-211 1950.7,-211 1993.34,-211" style=""/>
<polygon fill="black" stroke="black" points="1993.13,-214.5 2003.13,-211 1993.13,-207.5 1993.13,-214.5" style=""/>
<text text-anchor="middle" x="1924.88" y="-213.7" font-family="monospace" font-size="9.00" style="">                                                  </text>
<text text-anchor="start" x="1857.35" y="-227.2" font-family="monospace" font-size="6.00" style="">video/x-h264</text>
<text text-anchor="start" x="1857.35" y="-220" font-family="monospace" font-size="6.00" style="">       stream-format: avc</text>
<text text-anchor="start" x="1857.35" y="-212.8" font-family="monospace" font-size="6.00" style="">           alignment: au</text>
<text text-anchor="start" x="1857.35" y="-205.6" font-family="monospace" font-size="6.00" style="">video/x-h264</text>
<text text-anchor="start" x="1857.35" y="-198.4" font-family="monospace" font-size="6.00" style="">       stream-format: byte-stream</text>
<text text-anchor="start" x="1857.35" y="-191.2" font-family="monospace" font-size="6.00" style="">           alignment: { (string)nal, (stri... }</text>
<text text-anchor="start" x="1895.33" y="-220" font-family="monospace" font-size="6.00" style="">video/x-h264</text>
<text text-anchor="start" x="1895.33" y="-212.8" font-family="monospace" font-size="6.00" style="">              parsed: true</text>
<text text-anchor="start" x="1895.33" y="-205.6" font-family="monospace" font-size="6.00" style="">       stream-format: { (string)avc, (stri... }</text>
<text text-anchor="start" x="1895.33" y="-198.4" font-family="monospace" font-size="6.00" style="">           alignment: { (string)au, (strin... }</text>
</g>
<!-- video_queue_0x133040960_sink_0x13303d550 -->
<g id="node10" class="node" pointer-events="visible" data-name="video_queue_0x133040960_sink_0x13303d550">

<polygon fill="#aaaaff" stroke="black" points="1456.13,-221.6 1402.13,-221.6 1402.13,-200.4 1456.13,-200.4 1456.13,-221.6" style=""/>
<text text-anchor="middle" x="1429.13" y="-213.7" font-family="sans" font-size="9.00" style="">sink</text>
<text text-anchor="middle" x="1429.13" y="-202.9" font-family="sans" font-size="9.00" style="">[&gt;][bfb]</text>
</g>
<!-- video_queue_0x133040960_src_0x13303d7a0 -->
<g id="node11" class="node" pointer-events="visible" data-name="video_queue_0x133040960_src_0x13303d7a0">

<polygon fill="#ffaaaa" stroke="black" points="1543.13,-221.6 1489.13,-221.6 1489.13,-200.4 1543.13,-200.4 1543.13,-221.6" style=""/>
<text text-anchor="middle" x="1516.13" y="-213.7" font-family="sans" font-size="9.00" style="">src</text>
<text text-anchor="middle" x="1516.13" y="-202.9" font-family="sans" font-size="9.00" style="">[&gt;][bfb][T]</text>
</g>
<!-- video_queue_0x133040960_sink_0x13303d550&#45;&gt;video_queue_0x133040960_src_0x13303d7a0 -->
<!-- video_queue_0x133040960_src_0x13303d7a0&#45;&gt;h264parse0_0x1310fb070_sink_0x13303d9f0 -->
<g id="edge8" class="edge" data-name="video_queue_0x133040960_src_0x13303d7a0-&gt;h264parse0_0x1310fb070_sink_0x13303d9f0">

<path fill="none" stroke="black" d="M1543.61,-211C1580.93,-211 1649.2,-211 1691.84,-211" style=""/>
<polygon fill="black" stroke="black" points="1691.63,-214.5 1701.63,-211 1691.63,-207.5 1691.63,-214.5" style=""/>
<text text-anchor="middle" x="1623.38" y="-213.7" font-family="monospace" font-size="9.00" style="">                                                  </text>
<text text-anchor="start" x="1587.15" y="-209.2" font-family="monospace" font-size="6.00" style="">video/x-h264</text>
<text text-anchor="start" x="1605.62" y="-212.8" font-family="monospace" font-size="6.00" style="">video/x-h264</text>
<text text-anchor="start" x="1605.62" y="-205.6" font-family="monospace" font-size="6.00" style="">       stream-format: byte-stream</text>
</g>
<!-- demux_0x133040660_sink_0x13303d300 -->
<g id="node12" class="node" pointer-events="visible" data-name="demux_0x133040660_sink_0x13303d300">

<polygon fill="#aaaaff" stroke="black" points="1153.17,-221.6 1099.17,-221.6 1099.17,-200.4 1153.17,-200.4 1153.17,-221.6" style=""/>
<text text-anchor="middle" x="1126.17" y="-213.7" font-family="sans" font-size="9.00" style="">sink</text>
<text text-anchor="middle" x="1126.17" y="-202.9" font-family="sans" font-size="9.00" style="">[&gt;][bfb]</text>
</g>
<!-- demux_0x133040660_video_0_0041_0x1310f7220 -->
<g id="node13" class="node" pointer-events="visible" data-name="demux_0x133040660_video_0_0041_0x1310f7220">

<polygon fill="#ffaaaa" stroke="black" stroke-dasharray="1,5" points="1240.17,-221.6 1186.17,-221.6 1186.17,-200.4 1240.17,-200.4 1240.17,-221.6" style=""/>
<text text-anchor="middle" x="1213.17" y="-213.7" font-family="sans" font-size="9.00" style="">video_0_0041</text>
<text text-anchor="middle" x="1213.17" y="-202.9" font-family="sans" font-size="9.00" style="">[&gt;][bfb]</text>
</g>
<!-- demux_0x133040660_sink_0x13303d300&#45;&gt;demux_0x133040660_video_0_0041_0x1310f7220 -->
<!-- demux_0x133040660_video_0_0041_0x1310f7220&#45;&gt;video_queue_0x133040960_sink_0x13303d550 -->
<g id="edge10" class="edge" data-name="demux_0x133040660_video_0_0041_0x1310f7220-&gt;video_queue_0x133040960_sink_0x13303d550">

<path fill="none" stroke="black" d="M1240.4,-211C1277.94,-211 1347.18,-211 1390.27,-211" style=""/>
<polygon fill="black" stroke="black" points="1390.16,-214.5 1400.16,-211 1390.16,-207.5 1390.16,-214.5" style=""/>
<text text-anchor="start" x="1264.17" y="-224.5" font-family="monospace" font-size="9.00" style="">video/x-h264</text>
<text text-anchor="start" x="1264.17" y="-213.7" font-family="monospace" font-size="9.00" style="">       stream-format: byte-stream</text>
</g>
<!-- demux_0x133040660_audio_0_0042_0x1310f7470 -->
<g id="node14" class="node" pointer-events="visible" data-name="demux_0x133040660_audio_0_0042_0x1310f7470">

<polygon fill="#ffaaaa" stroke="black" stroke-dasharray="1,5" points="1240.17,-192.6 1186.17,-192.6 1186.17,-171.4 1240.17,-171.4 1240.17,-192.6" style=""/>
<text text-anchor="middle" x="1213.17" y="-184.7" font-family="sans" font-size="9.00" style="">audio_0_0042</text>
<text text-anchor="middle" x="1213.17" y="-173.9" font-family="sans" font-size="9.00" style="">[&gt;][bfb]</text>
</g>
<!-- typefind_0x133045060_sink_0x13303ce60 -->
<g id="node15" class="node" pointer-events="visible" data-name="typefind_0x133045060_sink_0x13303ce60">

<polygon fill="#aaaaff" stroke="black" points="824.44,-221.6 770.44,-221.6 770.44,-200.4 824.44,-200.4 824.44,-221.6" style=""/>
<text text-anchor="middle" x="797.44" y="-213.7" font-family="sans" font-size="9.00" style="">sink</text>
<text text-anchor="middle" x="797.44" y="-202.9" font-family="sans" font-size="9.00" style="">[&gt;][bfb]</text>
</g>
<!-- typefind_0x133045060_src_0x13303d0b0 -->
<g id="node16" class="node" pointer-events="visible" data-name="typefind_0x133045060_src_0x13303d0b0">

<polygon fill="#ffaaaa" stroke="black" points="952.44,-221.6 898.44,-221.6 898.44,-200.4 952.44,-200.4 952.44,-221.6" style=""/>
<text text-anchor="middle" x="925.44" y="-213.7" font-family="sans" font-size="9.00" style="">src</text>
<text text-anchor="middle" x="925.44" y="-202.9" font-family="sans" font-size="9.00" style="">[&gt;][bfb]</text>
</g>
<!-- typefind_0x133045060_sink_0x13303ce60&#45;&gt;typefind_0x133045060_src_0x13303d0b0 -->
<!-- typefind_0x133045060_src_0x13303d0b0&#45;&gt;demux_0x133040660_sink_0x13303d300 -->
<g id="edge12" class="edge" data-name="typefind_0x133045060_src_0x13303d0b0-&gt;demux_0x133040660_sink_0x13303d300">

<path fill="none" stroke="black" d="M952.83,-211C987.27,-211 1047.8,-211 1087.18,-211" style=""/>
<polygon fill="black" stroke="black" points="1087.16,-214.5 1097.16,-211 1087.16,-207.5 1087.16,-214.5" style=""/>
<text text-anchor="start" x="989.44" y="-235.3" font-family="monospace" font-size="9.00" style="">video/mpegts</text>
<text text-anchor="start" x="989.44" y="-224.5" font-family="monospace" font-size="9.00" style="">        systemstream: true</text>
<text text-anchor="start" x="989.44" y="-213.7" font-family="monospace" font-size="9.00" style="">          packetsize: 188</text>
</g>
<!-- srt_queue_0x133040360_sink_0x13303c9c0 -->
<g id="node17" class="node" pointer-events="visible" data-name="srt_queue_0x133040360_sink_0x13303c9c0">

<polygon fill="#aaaaff" stroke="black" points="596.94,-60.6 542.94,-60.6 542.94,-39.4 596.94,-39.4 596.94,-60.6" style=""/>
<text text-anchor="middle" x="569.94" y="-52.7" font-family="sans" font-size="9.00" style="">sink</text>
<text text-anchor="middle" x="569.94" y="-41.9" font-family="sans" font-size="9.00" style="">[&gt;][bfb]</text>
</g>
<!-- srt_queue_0x133040360_src_0x13303cc10 -->
<g id="node18" class="node" pointer-events="visible" data-name="srt_queue_0x133040360_src_0x13303cc10">

<polygon fill="#ffaaaa" stroke="black" points="683.94,-60.6 629.94,-60.6 629.94,-39.4 683.94,-39.4 683.94,-60.6" style=""/>
<text text-anchor="middle" x="656.94" y="-52.7" font-family="sans" font-size="9.00" style="">src</text>
<text text-anchor="middle" x="656.94" y="-41.9" font-family="sans" font-size="9.00" style="">[&gt;][bfb][T]</text>
</g>
<!-- srt_queue_0x133040360_sink_0x13303c9c0&#45;&gt;srt_queue_0x133040360_src_0x13303cc10 -->
<!-- srt_queue_0x133040360_src_0x13303cc10&#45;&gt;srtserversink0_0x131108320_sink_0x1310f6690 -->
<g id="edge14" class="edge" data-name="srt_queue_0x133040360_src_0x13303cc10-&gt;srtserversink0_0x131108320_sink_0x1310f6690">

<path fill="none" stroke="black" d="M684.31,-47.14C705.4,-44.86 735.22,-41.63 758.81,-39.08" style=""/>
<polygon fill="black" stroke="black" points="759.09,-42.57 768.65,-38.01 758.33,-35.61 759.09,-42.57" style=""/>
<text text-anchor="middle" x="717.69" y="-47.7" font-family="monospace" font-size="9.00" style="">ANY</text>
</g>
<!-- whep_queue_0x133040060_sink_0x13303c520 -->
<g id="node19" class="node" pointer-events="visible" data-name="whep_queue_0x133040060_sink_0x13303c520">

<polygon fill="#aaaaff" stroke="black" points="596.94,-212.6 542.94,-212.6 542.94,-191.4 596.94,-191.4 596.94,-212.6" style=""/>
<text text-anchor="middle" x="569.94" y="-204.7" font-family="sans" font-size="9.00" style="">sink</text>
<text text-anchor="middle" x="569.94" y="-193.9" font-family="sans" font-size="9.00" style="">[&gt;][bfb]</text>
</g>
<!-- whep_queue_0x133040060_src_0x13303c770 -->
<g id="node20" class="node" pointer-events="visible" data-name="whep_queue_0x133040060_src_0x13303c770">

<polygon fill="#ffaaaa" stroke="black" points="683.94,-212.6 629.94,-212.6 629.94,-191.4 683.94,-191.4 683.94,-212.6" style=""/>
<text text-anchor="middle" x="656.94" y="-204.7" font-family="sans" font-size="9.00" style="">src</text>
<text text-anchor="middle" x="656.94" y="-193.9" font-family="sans" font-size="9.00" style="">[&gt;][bfb][T]</text>
</g>
<!-- whep_queue_0x133040060_sink_0x13303c520&#45;&gt;whep_queue_0x133040060_src_0x13303c770 -->
<!-- whep_queue_0x133040060_src_0x13303c770&#45;&gt;typefind_0x133045060_sink_0x13303ce60 -->
<g id="edge16" class="edge" data-name="whep_queue_0x133040060_src_0x13303c770-&gt;typefind_0x133045060_sink_0x13303ce60">

<path fill="none" stroke="black" d="M684.31,-203.71C705.4,-205.08 735.22,-207.02 758.81,-208.55" style=""/>
<polygon fill="black" stroke="black" points="758.44,-212.04 768.65,-209.19 758.89,-205.05 758.44,-212.04" style=""/>
<text text-anchor="middle" x="717.69" y="-208.7" font-family="monospace" font-size="9.00" style="">ANY</text>
</g>
<!-- tee_0x133022000_sink_0x13303c2d0 -->
<g id="node21" class="node" pointer-events="visible" data-name="tee_0x133022000_sink_0x13303c2d0">

<polygon fill="#aaaaff" stroke="black" points="388.44,-165.6 334.44,-165.6 334.44,-144.4 388.44,-144.4 388.44,-165.6" style=""/>
<text text-anchor="middle" x="361.44" y="-157.7" font-family="sans" font-size="9.00" style="">sink</text>
<text text-anchor="middle" x="361.44" y="-146.9" font-family="sans" font-size="9.00" style="">[&gt;][bfb]</text>
</g>
<!-- tee_0x133022000_src_0_0x1311100c0 -->
<g id="node22" class="node" pointer-events="visible" data-name="tee_0x133022000_src_0_0x1311100c0">

<polygon fill="#ffaaaa" stroke="black" stroke-dasharray="5,2" points="475.44,-165.6 421.44,-165.6 421.44,-144.4 475.44,-144.4 475.44,-165.6" style=""/>
<text text-anchor="middle" x="448.44" y="-157.7" font-family="sans" font-size="9.00" style="">src_0</text>
<text text-anchor="middle" x="448.44" y="-146.9" font-family="sans" font-size="9.00" style="">[&gt;][bfb]</text>
</g>
<!-- tee_0x133022000_sink_0x13303c2d0&#45;&gt;tee_0x133022000_src_0_0x1311100c0 -->
<!-- tee_0x133022000_src_0_0x1311100c0&#45;&gt;whep_queue_0x133040060_sink_0x13303c520 -->
<g id="edge18" class="edge" data-name="tee_0x133022000_src_0_0x1311100c0-&gt;whep_queue_0x133040060_sink_0x13303c520">

<path fill="none" stroke="black" d="M475.66,-165.31C492.24,-171.83 513.91,-180.36 532.19,-187.55" style=""/>
<polygon fill="black" stroke="black" points="530.78,-190.75 541.36,-191.16 533.34,-184.24 530.78,-190.75" style=""/>
<text text-anchor="middle" x="509.19" y="-183.7" font-family="monospace" font-size="9.00" style="">ANY</text>
</g>
<!-- tee_0x133022000_src_1_0x131110320 -->
<g id="node23" class="node" pointer-events="visible" data-name="tee_0x133022000_src_1_0x131110320">

<polygon fill="#ffaaaa" stroke="black" stroke-dasharray="5,2" points="475.44,-136.6 421.44,-136.6 421.44,-115.4 475.44,-115.4 475.44,-136.6" style=""/>
<text text-anchor="middle" x="448.44" y="-128.7" font-family="sans" font-size="9.00" style="">src_1</text>
<text text-anchor="middle" x="448.44" y="-117.9" font-family="sans" font-size="9.00" style="">[&gt;][bfb]</text>
</g>
<!-- tee_0x133022000_src_1_0x131110320&#45;&gt;srt_queue_0x133040360_sink_0x13303c9c0 -->
<g id="edge19" class="edge" data-name="tee_0x133022000_src_1_0x131110320-&gt;srt_queue_0x133040360_sink_0x13303c9c0">

<path fill="none" stroke="black" d="M466.81,-114.95C486.55,-102.4 518.99,-81.76 542.01,-67.12" style=""/>
<polygon fill="black" stroke="black" points="543.7,-70.2 550.26,-61.88 539.95,-64.29 543.7,-70.2" style=""/>
<text text-anchor="middle" x="509.19" y="-94.7" font-family="monospace" font-size="9.00" style="">ANY</text>
</g>
<!-- srtsrc0_0x133030220_src_0x13303c080 -->
<g id="node24" class="node" pointer-events="visible" data-name="srtsrc0_0x133030220_src_0x13303c080">

<polygon fill="#ffaaaa" stroke="black" points="168.47,-165.6 114.47,-165.6 114.47,-144.4 168.47,-144.4 168.47,-165.6" style=""/>
<text text-anchor="middle" x="141.47" y="-157.7" font-family="sans" font-size="9.00" style="">src</text>
<text text-anchor="middle" x="141.47" y="-146.9" font-family="sans" font-size="9.00" style="">[&gt;][bfb][T]</text>
</g>
<!-- srtsrc0_0x133030220_src_0x13303c080&#45;&gt;tee_0x133022000_sink_0x13303c2d0 -->
<g id="edge20" class="edge" data-name="srtsrc0_0x133030220_src_0x13303c080-&gt;tee_0x133022000_sink_0x13303c2d0">

<path fill="none" stroke="black" d="M168.76,-155C207.14,-155 278.7,-155 322.69,-155" style=""/>
<polygon fill="black" stroke="black" points="322.54,-158.5 332.54,-155 322.54,-151.5 322.54,-158.5" style=""/>
<text text-anchor="middle" x="300.69" y="-157.7" font-family="monospace" font-size="9.00" style="">ANY</text>
</g>
</g>
</svg>